# xmcd
#
# Track frame offsets:
#	150
#	12358
#	28299
#	41195
#	54387
#	72148
#	86494
#	100560
#	119661
#	132622
#	151923
#	166633
#	183906
#	195129
#	206305
#	218954
#	236139
#	253057
#	268600
#	284952
#
# Disc length: 3996 seconds
#
# Revision: 1
# Processed by: cddbd v1.4PL0 Copyright (c) Steve Scherf et al.
# Submitted via: MusicWizard 6.0.2
#
DISCID=220f9a14
DTITLE=Various Artist - The All Time Greatest Country Songs [CD1&2) [CD 2/2)
DYEAR=1900
DGENRE=Country
TTITLE0=Dolly Parton - Jolene
TTITLE1=Tanya Tucker - Down To My Last Teardrop
TTITLE2=Leann Rimes - Blue
TTITLE3=Mary Chapin Carpenter - Let Me Into Your Heart
TTITLE4=The Judds - Love Can Build A Bridge
TTITLE5=Elvis Costello - A Good Year For The Roses
TTITLE6=Don Williams - I'm Just A Country Boy
TTITLE7=Nanci Griffith - From A Distance
TTITLE8=Bobby Bare - Detroit City
TTITLE9=Bobbie Gentry - Ode To Billy Joe
TTITLE10=Bellamy Brothers - If I Said You Had A Beautiful Body
TTITLE11=Mac Davis - Memories
TTITLE12=Neil Diamond - Kentucky Woman
TTITLE13=Roger Miller - King Of The Road
TTITLE14=Johnny Cash and June Carter - Jackson
TTITLE15=Johnny Cash - Riders In The Sky
TTITLE16=Tony Joe White - Polk Salad Annie
TTITLE17=Billy Ray Cyrus - Achy Breaky Heart
TTITLE18=Charlie Daniels Band - The Devil Went Down To Georgia
TTITLE19=Eric Weissberg and Steve Mandell - Duelling Banjos
EXTD=
EXTT0=
EXTT1=
EXTT2=
EXTT3=
EXTT4=
EXTT5=
EXTT6=
EXTT7=
EXTT8=
EXTT9=
EXTT10=
EXTT11=
EXTT12=
EXTT13=
EXTT14=
EXTT15=
EXTT16=
EXTT17=
EXTT18=
EXTT19=
PLAYORDER=
